<?xml version="1.0" encoding="UTF-8" standalone="no"?>
<!DOCTYPE svg PUBLIC "-//W3C//DTD SVG 1.1//EN" "http://www.w3.org/Graphics/SVG/1.1/DTD/svg11.dtd">
<svg width="100%" height="100%" viewBox="0 0 245 50" version="1.1" xmlns="http://www.w3.org/2000/svg" xmlns:xlink="http://www.w3.org/1999/xlink" xml:space="preserve" xmlns:serif="http://www.serif.com/" style="fill-rule:evenodd;clip-rule:evenodd;stroke-linejoin:round;stroke-miterlimit:2;">
    <g transform="matrix(1,0,0,1,-2075,-855)">
        <g id="Artboard1" transform="matrix(1,0,0,1,1999.21,-2.84217e-14)">
            <rect x="0" y="0" width="1920" height="1080" style="fill:none;"/>
            <g transform="matrix(0.57201,0,0,0.57201,-399.45,573.195)">
                <g transform="matrix(1.37575,0,0,1.37575,-851.769,47.3798)">
                    <path d="M1244,337.483L1225.27,337.483L1251.44,383.628L1260.95,366.843L1244,337.483ZM1277.89,337.483L1251.44,337.483L1264.52,345.092L1264.52,360.415L1277.89,337.483Z" style="fill:rgb(141,144,129);"/>
                </g>
                <g transform="matrix(-1.37575,0,0,-1.37575,2636.56,1039.45)">
                    <path d="M1244,337.483L1225.27,337.483L1251.44,383.628L1260.95,366.843L1244,337.483ZM1277.89,337.483L1251.44,337.483L1264.52,345.092L1264.52,360.415L1277.89,337.483Z" style="fill:rgb(141,144,129);"/>
                </g>
                <g transform="matrix(-1.37575,0,0,-1.37575,2939.94,1039.45)">
                    <path d="M1244,337.483L1225.27,337.483L1251.44,383.628L1260.95,366.843L1244,337.483ZM1277.89,337.483L1251.44,337.483L1264.52,345.092L1264.52,360.415L1277.89,337.483Z" style="fill:rgb(141,144,129);"/>
                </g>
                <g transform="matrix(1.1074,0,1.13554e-16,1,433.688,147.884)">
                    <rect x="475.169" y="363.789" width="20.537" height="63.484" style="fill:rgb(141,144,129);"/>
                </g>
                <g transform="matrix(1.1074,0,1.13554e-16,1,583.584,147.884)">
                    <rect x="475.169" y="363.789" width="20.537" height="63.484" style="fill:rgb(141,144,129);"/>
                </g>
                <g transform="matrix(1.1074,0,1.13554e-16,1,506.17,147.884)">
                    <path d="M495.705,363.789L475.169,363.789L475.169,404.532C475.169,410.563 477.332,416.348 481.183,420.612C485.034,424.877 490.258,427.273 495.704,427.273C495.705,427.273 495.705,427.273 495.705,427.273L495.705,363.789Z" style="fill:rgb(141,144,129);"/>
                </g>
                <g transform="matrix(-1.1074,0,-1.13554e-16,1,1626.99,147.884)">
                    <path d="M495.705,363.789L475.169,363.789L475.169,404.532C475.169,410.563 477.332,416.348 481.183,420.612C485.034,424.877 490.258,427.273 495.704,427.273C495.705,427.273 495.705,427.273 495.705,427.273L495.705,363.789Z" style="fill:rgb(141,144,129);"/>
                </g>
                <g transform="matrix(2.68316e-17,0.438193,-1,1.06165e-16,1387.16,285.459)">
                    <path d="M495.705,363.789L475.169,363.789C475.169,363.789 495.705,363.748 495.705,395.531C495.705,427.315 475.169,427.273 475.169,427.273L495.705,427.273L495.705,363.789Z" style="fill:rgb(34,46,52);"/>
                </g>
                <g transform="matrix(1,0,0,1.21006,612.933,71.4673)">
                    <path d="M560.338,397.458L538.312,397.458C538.312,397.458 542.805,413.243 560.338,416.253L560.338,397.458Z" style="fill:rgb(141,144,129);"/>
                </g>
                <g transform="matrix(1,0,0,1,474.874,147.884)">
                    <path d="M548.5,427.273L516.758,427.273C534.277,427.273 548.5,413.05 548.5,395.531L548.5,427.273ZM548.5,395.531C548.5,378.012 534.277,363.789 516.758,363.789L548.5,363.789L548.5,395.531Z" style="fill:rgb(141,144,129);"/>
                </g>
                <g transform="matrix(1,0,0,1,624.771,147.884)">
                    <path d="M548.5,395.531C548.5,378.012 534.277,363.789 516.758,363.789L548.5,363.789L548.5,395.531Z" style="fill:rgb(141,144,129);"/>
                </g>
            </g>
        </g>
    </g>
</svg>
